<mxfile host="65bd71144e">
    <diagram id="NOIVxULRujJSqBa6Wizx" name="Page-1">
        <mxGraphModel dx="1061" dy="534" grid="1" gridSize="10" guides="1" tooltips="1" connect="1" arrows="1" fold="1" page="1" pageScale="1" pageWidth="850" pageHeight="1100" math="0" shadow="0">
            <root>
                <mxCell id="0"/>
                <mxCell id="1" parent="0"/>
                <mxCell id="2" value="&lt;font style=&quot;font-size: 48px; color: rgb(255, 255, 255);&quot; face=&quot;Reddit Sans&quot; data-font-src=&quot;https://fonts.googleapis.com/css?family=Reddit+Sans&quot;&gt;CS&lt;/font&gt;" style="whiteSpace=wrap;html=1;aspect=fixed;fillColor=#9810FA;strokeColor=none;fontColor=#FFFFFF;" parent="1" vertex="1">
                    <mxGeometry x="380" y="240" width="80" height="80" as="geometry"/>
                </mxCell>
            </root>
        </mxGraphModel>
    </diagram>
</mxfile>